<?xml version="1.0" encoding="utf-8"?>
<!-- Generator: Adobe Illustrator 24.0.2, SVG Export Plug-In . SVG Version: 6.00 Build 0)  -->
<svg version="1.1" id="Warstwa_1" xmlns="http://www.w3.org/2000/svg" xmlns:xlink="http://www.w3.org/1999/xlink" x="0px" y="0px"
	 viewBox="0 0 430 430" style="enable-background:new 0 0 430 430;" xml:space="preserve">
<style type="text/css">
	.st0{fill:#ebe6ef;}
	.st1{opacity:0.5;}
	.st2{fill:#121331;}
	.st3{fill:#3A3347;}
	.st4{fill:#4bb3fd;}
	.st5{fill:#f24c00;}
	.st6{fill:#FFC738;}
	.st7{fill:#2CA58D;}
	.st8{display:none;}
	.st9{display:inline;fill:none;stroke:#121331;stroke-width:7;stroke-linecap:round;stroke-linejoin:round;}
	.st10{display:none;fill:none;stroke:#121331;stroke-width:7;stroke-linecap:round;stroke-linejoin:round;stroke-miterlimit:10;}
	.st11{fill:#f9c9c0;}
	.st12{fill:#F28BA8;}
	.st13{fill:#646e78;}
	.st14{fill:#B26836;}
	.st15{opacity:0.6;}
	.st16{opacity:0.7;}
	.st17{fill:#92140C;}
	.st18{opacity:0;}
	.st19{opacity:0.4;}
	.st20{opacity:0.8;}
	.st21{fill:none;}
	.st22{opacity:0.2;clip-path:url(#SVGID_2_);}
	.st23{opacity:0.2;clip-path:url(#SVGID_4_);}
	.st24{opacity:0.2;clip-path:url(#SVGID_6_);}
	.st25{opacity:0.2;clip-path:url(#SVGID_8_);}
	.st26{opacity:0.2;clip-path:url(#SVGID_10_);}
	.st27{opacity:0.2;clip-path:url(#SVGID_12_);}
	.st28{fill:#FFFFFF;}
</style>
<g>
	<path class="st5" d="M192.05,338.1v42.64c0,2.51-2.9,3.91-4.87,2.35l-23.82-18.91l-23.81,19.05c-1.96,1.57-4.87,0.17-4.87-2.34
		V338.1H192.05z"/>
</g>
<g class="st1">
	<path class="st5" d="M163.36,338.1h-28.69v42.78c0,2.52,2.91,3.91,4.87,2.34l23.81-19.05V338.1z"/>
</g>
<g>
	<path class="st4" d="M325.76,96.28V336.9c0,2.21-1.78,4-3.99,4c-25.49,0.03-164.99,0.19-180.68,0
		c-35.48-0.42-36.85-32.43-36.85-32.43l0.46-239.69c0,1.57,0.54,27.29,35.48,27.49C171.56,96.45,325.76,96.28,325.76,96.28z"/>
</g>
<g class="st1">
	<path class="st4" d="M122.84,93.39c-17.77-6.8-18.14-23.35-18.14-24.6l-0.46,239.69c0,0,0.86,19.88,18.6,28.51V93.39z"/>
</g>
<g>
	<path class="st0" d="M140.16,96.29c31.38,0.18,185.6-0.01,185.6-0.01V40.82c0-2.21-1.79-4-4-4l-181.83,0.01
		c-30.01,0-35.66,23.56-35.25,31.97C104.68,70.37,105.22,96.09,140.16,96.29z"/>
</g>
<g class="st1">
	<path class="st0" d="M139.93,36.83c-30.01,0-35.66,23.56-35.25,31.97c0,1.26,0.37,18.12,18.64,24.79
		c-6.5-12.68-18.24-43.41,20.9-43.41h181.54v-9.35c0-2.21-1.79-4-4-4L139.93,36.83z"/>
</g>
<g>
	<g>
		<g>
			<path class="st0" d="M295.33,69.5H146.48c-1.93,0-3.5-1.57-3.5-3.5s1.57-3.5,3.5-3.5h148.85c1.93,0,3.5,1.57,3.5,3.5
				S297.26,69.5,295.33,69.5z"/>
		</g>
	</g>
</g>
<g>
	<circle class="st11" cx="221.9" cy="175.07" r="39.93"/>
</g>
<g>
	<path class="st0" d="M283.85,264.4H157.62c-1.93,0-3.5-1.57-3.5-3.5s1.57-3.5,3.5-3.5h126.23c1.93,0,3.5,1.57,3.5,3.5
		S285.78,264.4,283.85,264.4z"/>
</g>
<g>
	<path class="st0" d="M283.85,287.35H157.62c-1.93,0-3.5-1.57-3.5-3.5s1.57-3.5,3.5-3.5h126.23c1.93,0,3.5,1.57,3.5,3.5
		S285.78,287.35,283.85,287.35z"/>
</g>
</svg>
